<svg width="11" height="8" viewBox="0 0 11 8" fill="none" xmlns="http://www.w3.org/2000/svg">
<path id="Vector" d="M10.2428 1.84142V5.73227C10.2428 6.09424 10.0841 6.44139 9.80158 6.69734C9.5191 6.9533 9.13597 7.09709 8.73648 7.09709H2.10882C1.70933 7.09709 1.3262 6.9533 1.04372 6.69734C0.761236 6.44139 0.602539 6.09424 0.602539 5.73227V1.84142L5.26961 4.32977C5.31598 4.35455 5.36882 4.36762 5.42265 4.36762C5.47648 4.36762 5.52932 4.35455 5.57569 4.32977L10.2428 1.84142ZM8.73648 1.6898e-08C9.10711 -5.28002e-05 9.46476 0.123711 9.74099 0.347615C10.0172 0.57152 10.1927 0.879844 10.2337 1.2136L5.42265 3.77784L0.611577 1.2136C0.652643 0.879844 0.828074 0.57152 1.10431 0.347615C1.38054 0.123711 1.73819 -5.28002e-05 2.10882 1.6898e-08H8.73648Z" fill="#CCCCCC"/>
</svg>
