<svg width="11" height="10" viewBox="0 0 11 10" fill="none" xmlns="http://www.w3.org/2000/svg">
<g id="simple-icons:github" clip-path="url(#clip0_6_33)">
<rect width="9.79085" height="8.87136" transform="translate(0.527222 0.296417)" fill="#CCCCCC"/>
<path id="Vector" d="M5.42265 0.406204C2.71792 0.406204 0.527222 2.39228 0.527222 4.84189C0.527222 6.80209 1.92976 8.46436 3.87447 9.05024C4.11924 9.09201 4.20899 8.95487 4.20899 8.83696C4.20899 8.73161 4.20491 8.45253 4.20287 8.08289C2.84113 8.35051 2.55393 7.48777 2.55393 7.48777C2.33119 6.97582 2.00931 6.83905 2.00931 6.83905C1.56587 6.56404 2.04358 6.56958 2.04358 6.56958C2.53516 6.60063 2.7934 7.02646 2.7934 7.02646C3.2299 7.70475 3.93933 7.50884 4.21919 7.39536C4.26325 7.10852 4.3893 6.91298 4.52923 6.80209C3.44204 6.6912 2.29937 6.30973 2.29937 4.61012C2.29937 4.12589 2.48906 3.73038 2.80319 3.41988C2.74811 3.30788 2.58289 2.85692 2.84602 2.2459C2.84602 2.2459 3.25601 2.12688 4.19226 2.70056C4.5839 2.60187 5.00001 2.55307 5.41612 2.55086C5.83223 2.55307 6.24834 2.60187 6.63998 2.70056C7.57011 2.12688 7.9801 2.2459 7.9801 2.2459C8.24323 2.85692 8.07801 3.30788 8.02905 3.41988C8.34114 3.73038 8.53083 4.12589 8.53083 4.61012C8.53083 6.31416 7.38653 6.68935 6.2973 6.79839C6.46864 6.93146 6.62774 7.20352 6.62774 7.61899C6.62774 8.21263 6.62162 8.68947 6.62162 8.83363C6.62162 8.95007 6.70729 9.08868 6.95818 9.04432C8.91676 8.46251 10.3181 6.79913 10.3181 4.84189C10.3181 2.39228 8.12614 0.406204 5.42265 0.406204Z" fill="#F7F7F7"/>
</g>
<defs>
<clipPath id="clip0_6_33">
<rect width="9.79085" height="8.87136" fill="white" transform="translate(0.527222 0.296417)"/>
</clipPath>
</defs>
</svg>
