<svg width="9" height="12" viewBox="0 0 9 12" fill="none" xmlns="http://www.w3.org/2000/svg">
<path id="Vector" d="M4.42268 11.2964C4.42268 11.2964 0.205078 6.31208 0.205078 4.19933C0.205078 3.69748 0.31417 3.20055 0.526124 2.7369C0.738078 2.27326 1.04874 1.85198 1.44038 1.49712C1.83202 1.14226 2.29697 0.860767 2.80867 0.668718C3.32037 0.476669 3.86881 0.377823 4.42268 0.377823C4.97654 0.377823 5.52498 0.476669 6.03668 0.668718C6.54838 0.860767 7.01333 1.14226 7.40497 1.49712C7.79661 1.85198 8.10727 2.27326 8.31923 2.7369C8.53118 3.20055 8.64027 3.69748 8.64027 4.19933C8.64027 6.31208 4.42268 11.2964 4.42268 11.2964ZM4.42268 5.29119C4.74227 5.29119 5.04877 5.17616 5.27476 4.97139C5.50075 4.76663 5.6277 4.48891 5.6277 4.19933C5.6277 3.90975 5.50075 3.63204 5.27476 3.42727C5.04877 3.22251 4.74227 3.10747 4.42268 3.10747C4.10308 3.10747 3.79658 3.22251 3.57059 3.42727C3.34461 3.63204 3.21765 3.90975 3.21765 4.19933C3.21765 4.48891 3.34461 4.76663 3.57059 4.97139C3.79658 5.17616 4.10308 5.29119 4.42268 5.29119Z" fill="#CCCCCC"/>
</svg>
