<svg width="11" height="10" viewBox="0 0 11 10" fill="none" xmlns="http://www.w3.org/2000/svg">
<path id="Vector" d="M7.56568 6.05099L7.29154 6.2983C7.29154 6.2983 6.63901 6.88572 4.85859 5.28178C3.07816 3.67784 3.73068 3.09041 3.73068 3.09041L3.903 2.93428C4.32898 2.55104 4.36934 1.93523 3.99759 1.48538L3.23843 0.56658C2.7781 0.00973167 1.8894 -0.0639688 1.3622 0.41099L0.41625 1.26264C0.155362 1.49848 -0.0193672 1.80311 0.00172078 2.14159C0.055947 3.00798 0.488552 4.87124 2.90102 7.04513C5.45989 9.35005 7.86091 9.44176 8.84241 9.35878C9.1533 9.33258 9.42323 9.18954 9.64074 8.99301L10.4963 8.22216C11.0747 7.70188 10.912 6.80929 10.1722 6.44515L9.02135 5.87793C8.53573 5.63936 7.94526 5.70924 7.56568 6.05099Z" fill="#CCCCCC"/>
</svg>
